<svg width="36" height="36" viewBox="0 0 36 36" fill="none" xmlns="http://www.w3.org/2000/svg">
<path fill-rule="evenodd" clip-rule="evenodd" d="M18 9.75C13.4437 9.75 9.75 13.4437 9.75 18C9.75 22.5563 13.4437 26.25 18 26.25C22.5563 26.25 26.25 22.5563 26.25 18C26.25 13.4437 22.5563 9.75 18 9.75ZM8.25 18C8.25 12.6152 12.6152 8.25 18 8.25C23.3848 8.25 27.75 12.6152 27.75 18C27.75 23.3848 23.3848 27.75 18 27.75C12.6152 27.75 8.25 23.3848 8.25 18Z" fill="#121929" fill-opacity="0.64"/>
<path fill-rule="evenodd" clip-rule="evenodd" d="M18 8.25C18.4142 8.25 18.75 8.58579 18.75 9V18C18.75 18.4142 18.4142 18.75 18 18.75C17.5858 18.75 17.25 18.4142 17.25 18V9C17.25 8.58579 17.5858 8.25 18 8.25Z" fill="#121929" fill-opacity="0.64"/>
<path fill-rule="evenodd" clip-rule="evenodd" d="M26.44 13.1248C26.6472 13.4835 26.5244 13.9422 26.1657 14.1494L10.5845 23.1494C10.2258 23.3566 9.76709 23.2337 9.55991 22.8751C9.35273 22.5164 9.47555 22.0577 9.83422 21.8505L25.4155 12.8505C25.7742 12.6433 26.2329 12.7661 26.44 13.1248Z" fill="#121929" fill-opacity="0.64"/>
</svg>
