<svg width="18" height="19" viewBox="0 0 18 19" fill="none" xmlns="http://www.w3.org/2000/svg">
<path fill-rule="evenodd" clip-rule="evenodd" d="M12.5007 7.42422C12.7152 7.649 12.7068 8.00506 12.482 8.2195L8.35468 12.157C8.13722 12.3645 7.79507 12.3643 7.57778 12.1567L5.51763 10.1879C5.29303 9.97329 5.28495 9.61722 5.49958 9.39263C5.71421 9.16803 6.07028 9.15995 6.29487 9.37458L7.96674 10.9723L11.7055 7.4055C11.9303 7.19106 12.2863 7.19945 12.5007 7.42422Z" fill="#00BDFF"/>
<path fill-rule="evenodd" clip-rule="evenodd" d="M2.25 3.875C2.25 3.25368 2.75368 2.75 3.375 2.75H14.625C15.2463 2.75 15.75 3.25368 15.75 3.875V15.125C15.75 15.7463 15.2463 16.25 14.625 16.25H3.375C2.75368 16.25 2.25 15.7463 2.25 15.125V3.875ZM14.625 3.875H3.375V15.125H14.625V3.875Z" fill="#00BDFF"/>
</svg>
