<svg width="36" height="36" viewBox="0 0 36 36" fill="none" xmlns="http://www.w3.org/2000/svg">
<path fill-rule="evenodd" clip-rule="evenodd" d="M14.25 20.25C14.25 19.8358 14.5858 19.5 15 19.5H21C21.4142 19.5 21.75 19.8358 21.75 20.25C21.75 20.6642 21.4142 21 21 21H15C14.5858 21 14.25 20.6642 14.25 20.25Z" fill="#121929" fill-opacity="0.64"/>
<path fill-rule="evenodd" clip-rule="evenodd" d="M14.25 17.25C14.25 16.8358 14.5858 16.5 15 16.5H21C21.4142 16.5 21.75 16.8358 21.75 17.25C21.75 17.6642 21.4142 18 21 18H15C14.5858 18 14.25 17.6642 14.25 17.25Z" fill="#121929" fill-opacity="0.64"/>
<path fill-rule="evenodd" clip-rule="evenodd" d="M10.1893 9.43934C10.4706 9.15804 10.8522 9 11.25 9H15C15.4142 9 15.75 9.33579 15.75 9.75C15.75 10.1642 15.4142 10.5 15 10.5H11.25L11.25 26.25H24.75V10.5H21C20.5858 10.5 20.25 10.1642 20.25 9.75C20.25 9.33579 20.5858 9 21 9H24.75C25.1478 9 25.5294 9.15804 25.8107 9.43934C26.092 9.72065 26.25 10.1022 26.25 10.5V26.25C26.25 26.6478 26.092 27.0294 25.8107 27.3107C25.5294 27.592 25.1478 27.75 24.75 27.75H11.25C10.8522 27.75 10.4706 27.592 10.1893 27.3107C9.90804 27.0294 9.75 26.6478 9.75 26.25V10.5C9.75 10.1022 9.90804 9.72064 10.1893 9.43934Z" fill="#121929" fill-opacity="0.64"/>
<path fill-rule="evenodd" clip-rule="evenodd" d="M18 9C17.2044 9 16.4413 9.31607 15.8787 9.87868C15.3161 10.4413 15 11.2044 15 12H21C21 11.2044 20.6839 10.4413 20.1213 9.87868C19.5587 9.31607 18.7956 9 18 9ZM14.818 8.81802C15.6619 7.97411 16.8065 7.5 18 7.5C19.1935 7.5 20.3381 7.97411 21.182 8.81802C22.0259 9.66193 22.5 10.8065 22.5 12V12.75C22.5 13.1642 22.1642 13.5 21.75 13.5H14.25C13.8358 13.5 13.5 13.1642 13.5 12.75V12C13.5 10.8065 13.9741 9.66193 14.818 8.81802Z" fill="#121929" fill-opacity="0.64"/>
</svg>
