<svg width="36" height="36" viewBox="0 0 36 36" fill="none" xmlns="http://www.w3.org/2000/svg">
<path fill-rule="evenodd" clip-rule="evenodd" d="M6.75 12.75C6.75 11.9216 7.42157 11.25 8.25 11.25H27.75C28.5784 11.25 29.25 11.9216 29.25 12.75V23.25C29.25 24.0784 28.5784 24.75 27.75 24.75H8.25C7.42157 24.75 6.75 24.0784 6.75 23.25V12.75ZM27.75 12.75H8.25V23.25H27.75V12.75Z" fill="#121929" fill-opacity="0.64"/>
<path fill-rule="evenodd" clip-rule="evenodd" d="M18 15.75C16.7574 15.75 15.75 16.7574 15.75 18C15.75 19.2426 16.7574 20.25 18 20.25C19.2426 20.25 20.25 19.2426 20.25 18C20.25 16.7574 19.2426 15.75 18 15.75ZM14.25 18C14.25 15.9289 15.9289 14.25 18 14.25C20.0711 14.25 21.75 15.9289 21.75 18C21.75 20.0711 20.0711 21.75 18 21.75C15.9289 21.75 14.25 20.0711 14.25 18Z" fill="#121929" fill-opacity="0.64"/>
<path fill-rule="evenodd" clip-rule="evenodd" d="M21.9356 11.5061C22.2083 11.1944 22.6822 11.1628 22.9939 11.4356L28.9939 16.6856C29.3056 16.9583 29.3372 17.4322 29.0644 17.7439C28.7917 18.0556 28.3179 18.0872 28.0061 17.8144L22.0061 12.5644C21.6944 12.2917 21.6628 11.8179 21.9356 11.5061Z" fill="#121929" fill-opacity="0.64"/>
<path fill-rule="evenodd" clip-rule="evenodd" d="M29.0644 18.2561C29.3372 18.5679 29.3056 19.0417 28.9939 19.3144L22.9939 24.5644C22.6822 24.8372 22.2083 24.8056 21.9356 24.4939C21.6628 24.1822 21.6944 23.7083 22.0061 23.4356L28.0061 18.1856C28.3179 17.9128 28.7917 17.9444 29.0644 18.2561Z" fill="#121929" fill-opacity="0.64"/>
<path fill-rule="evenodd" clip-rule="evenodd" d="M14.0644 11.5061C14.3372 11.8179 14.3056 12.2917 13.9939 12.5644L7.99389 17.8144C7.68216 18.0872 7.20834 18.0556 6.93558 17.7439C6.66282 17.4322 6.6944 16.9583 7.00613 16.6856L13.0061 11.4356C13.3179 11.1628 13.7917 11.1944 14.0644 11.5061Z" fill="#121929" fill-opacity="0.64"/>
<path fill-rule="evenodd" clip-rule="evenodd" d="M6.93558 18.2561C7.20834 17.9444 7.68216 17.9128 7.99389 18.1856L13.9939 23.4356C14.3056 23.7083 14.3372 24.1822 14.0644 24.4939C13.7917 24.8056 13.3179 24.8372 13.0061 24.5644L7.00613 19.3144C6.6944 19.0417 6.66282 18.5679 6.93558 18.2561Z" fill="#121929" fill-opacity="0.64"/>
</svg>
