<svg width="22" height="23" viewBox="0 0 22 23" fill="none" xmlns="http://www.w3.org/2000/svg">
<path d="M11 2.5625C9.23233 2.5625 7.50436 3.08668 6.0346 4.06874C4.56483 5.05081 3.41929 6.44665 2.74283 8.07977C2.06637 9.71288 1.88938 11.5099 2.23424 13.2436C2.57909 14.9773 3.43031 16.5698 4.68024 17.8198C5.93017 19.0697 7.52268 19.9209 9.25638 20.2658C10.9901 20.6106 12.7871 20.4336 14.4202 19.7572C16.0534 19.0807 17.4492 17.9352 18.4313 16.4654C19.4133 14.9956 19.9375 13.2677 19.9375 11.5C19.935 9.1304 18.9926 6.85856 17.317 5.183C15.6414 3.50743 13.3696 2.565 11 2.5625ZM11 19.0625C9.50428 19.0625 8.04215 18.619 6.7985 17.788C5.55486 16.957 4.58555 15.7759 4.01316 14.394C3.44078 13.0122 3.29101 11.4916 3.58282 10.0246C3.87462 8.55765 4.59487 7.21014 5.65251 6.15251C6.71014 5.09487 8.05765 4.37461 9.52463 4.08281C10.9916 3.79101 12.5122 3.94077 13.894 4.51316C15.2759 5.08555 16.457 6.05485 17.288 7.2985C18.119 8.54215 18.5625 10.0043 18.5625 11.5C18.5602 13.505 17.7627 15.4272 16.345 16.845C14.9272 18.2627 13.005 19.0602 11 19.0625ZM15.125 11.5C15.125 11.6823 15.0526 11.8572 14.9236 11.9861C14.7947 12.1151 14.6198 12.1875 14.4375 12.1875H11.6875V14.9375C11.6875 15.1198 11.6151 15.2947 11.4861 15.4236C11.3572 15.5526 11.1823 15.625 11 15.625C10.8177 15.625 10.6428 15.5526 10.5139 15.4236C10.3849 15.2947 10.3125 15.1198 10.3125 14.9375V12.1875H7.5625C7.38017 12.1875 7.2053 12.1151 7.07637 11.9861C6.94744 11.8572 6.875 11.6823 6.875 11.5C6.875 11.3177 6.94744 11.1428 7.07637 11.0139C7.2053 10.8849 7.38017 10.8125 7.5625 10.8125H10.3125V8.0625C10.3125 7.88016 10.3849 7.7053 10.5139 7.57636C10.6428 7.44743 10.8177 7.375 11 7.375C11.1823 7.375 11.3572 7.44743 11.4861 7.57636C11.6151 7.7053 11.6875 7.88016 11.6875 8.0625V10.8125H14.4375C14.6198 10.8125 14.7947 10.8849 14.9236 11.0139C15.0526 11.1428 15.125 11.3177 15.125 11.5Z" fill="white"/>
</svg>
