<svg width="36" height="36" viewBox="0 0 36 36" fill="none" xmlns="http://www.w3.org/2000/svg">
<path d="M27.75 15C27.7504 14.9303 27.7409 14.8608 27.7219 14.7938L26.3766 10.0875C26.2861 9.77523 26.0971 9.50059 25.8378 9.30459C25.5784 9.10858 25.2626 9.00174 24.9375 9H11.0625C10.7374 9.00174 10.4216 9.10858 10.1622 9.30459C9.90287 9.50059 9.71386 9.77523 9.62344 10.0875L8.27906 14.7938C8.2597 14.8608 8.24991 14.9302 8.25 15V16.5C8.25 17.0822 8.38554 17.6563 8.6459 18.1771C8.90625 18.6978 9.28427 19.1507 9.75 19.5V25.5C9.75 25.8978 9.90804 26.2794 10.1893 26.5607C10.4706 26.842 10.8522 27 11.25 27H24.75C25.1478 27 25.5294 26.842 25.8107 26.5607C26.092 26.2794 26.25 25.8978 26.25 25.5V19.5C26.7157 19.1507 27.0937 18.6978 27.3541 18.1771C27.6145 17.6563 27.75 17.0822 27.75 16.5V15ZM11.0625 10.5H24.9375L26.0081 14.25H9.99469L11.0625 10.5ZM15.75 15.75H20.25V16.5C20.25 17.0967 20.0129 17.669 19.591 18.091C19.169 18.5129 18.5967 18.75 18 18.75C17.4033 18.75 16.831 18.5129 16.409 18.091C15.9871 17.669 15.75 17.0967 15.75 16.5V15.75ZM14.25 15.75V16.5C14.25 17.0967 14.0129 17.669 13.591 18.091C13.169 18.5129 12.5967 18.75 12 18.75C11.4033 18.75 10.831 18.5129 10.409 18.091C9.98705 17.669 9.75 17.0967 9.75 16.5V15.75H14.25ZM24.75 25.5H11.25V20.175C11.4969 20.2248 11.7481 20.2499 12 20.25C12.5822 20.25 13.1563 20.1145 13.6771 19.8541C14.1978 19.5937 14.6507 19.2157 15 18.75C15.3493 19.2157 15.8022 19.5937 16.3229 19.8541C16.8437 20.1145 17.4178 20.25 18 20.25C18.5822 20.25 19.1563 20.1145 19.6771 19.8541C20.1978 19.5937 20.6507 19.2157 21 18.75C21.3493 19.2157 21.8022 19.5937 22.3229 19.8541C22.8437 20.1145 23.4178 20.25 24 20.25C24.2519 20.2499 24.5031 20.2248 24.75 20.175V25.5ZM24 18.75C23.4033 18.75 22.831 18.5129 22.409 18.091C21.9871 17.669 21.75 17.0967 21.75 16.5V15.75H26.25V16.5C26.25 17.0967 26.0129 17.669 25.591 18.091C25.169 18.5129 24.5967 18.75 24 18.75Z" fill="#121929" fill-opacity="0.64"/>
</svg>
