<svg width="36" height="36" viewBox="0 0 36 36" fill="none" xmlns="http://www.w3.org/2000/svg">
<path fill-rule="evenodd" clip-rule="evenodd" d="M18 13.125C15.3076 13.125 13.125 15.3076 13.125 18C13.125 20.6924 15.3076 22.875 18 22.875C20.6924 22.875 22.875 20.6924 22.875 18C22.875 15.3076 20.6924 13.125 18 13.125ZM11.625 18C11.625 14.4792 14.4792 11.625 18 11.625C21.5208 11.625 24.375 14.4792 24.375 18C24.375 21.5208 21.5208 24.375 18 24.375C14.4792 24.375 11.625 21.5208 11.625 18Z" fill="#121929" fill-opacity="0.64"/>
<path fill-rule="evenodd" clip-rule="evenodd" d="M18 6.75C18.4142 6.75 18.75 7.08579 18.75 7.5V9.375C18.75 9.78921 18.4142 10.125 18 10.125C17.5858 10.125 17.25 9.78921 17.25 9.375V7.5C17.25 7.08579 17.5858 6.75 18 6.75Z" fill="#121929" fill-opacity="0.64"/>
<path fill-rule="evenodd" clip-rule="evenodd" d="M10.0447 10.0447C10.3376 9.75185 10.8125 9.75185 11.1054 10.0447L12.4273 11.3666C12.7202 11.6595 12.7202 12.1344 12.4273 12.4273C12.1344 12.7202 11.6595 12.7202 11.3666 12.4273L10.0447 11.1054C9.75185 10.8125 9.75185 10.3376 10.0447 10.0447Z" fill="#121929" fill-opacity="0.64"/>
<path fill-rule="evenodd" clip-rule="evenodd" d="M6.75 18C6.75 17.5858 7.08579 17.25 7.5 17.25H9.375C9.78921 17.25 10.125 17.5858 10.125 18C10.125 18.4142 9.78921 18.75 9.375 18.75H7.5C7.08579 18.75 6.75 18.4142 6.75 18Z" fill="#121929" fill-opacity="0.64"/>
<path fill-rule="evenodd" clip-rule="evenodd" d="M12.4273 23.5728C12.7202 23.8657 12.7202 24.3405 12.4273 24.6334L11.1054 25.9553C10.8125 26.2482 10.3376 26.2482 10.0447 25.9553C9.75185 25.6624 9.75185 25.1875 10.0447 24.8946L11.3666 23.5728C11.6595 23.2799 12.1344 23.2799 12.4273 23.5728Z" fill="#121929" fill-opacity="0.64"/>
<path fill-rule="evenodd" clip-rule="evenodd" d="M18 25.875C18.4142 25.875 18.75 26.2108 18.75 26.625V28.5C18.75 28.9142 18.4142 29.25 18 29.25C17.5858 29.25 17.25 28.9142 17.25 28.5V26.625C17.25 26.2108 17.5858 25.875 18 25.875Z" fill="#121929" fill-opacity="0.64"/>
<path fill-rule="evenodd" clip-rule="evenodd" d="M23.5729 23.5728C23.8658 23.2799 24.3407 23.2799 24.6336 23.5728L25.9555 24.8946C26.2484 25.1875 26.2484 25.6624 25.9555 25.9553C25.6626 26.2482 25.1877 26.2482 24.8948 25.9553L23.5729 24.6334C23.28 24.3405 23.28 23.8657 23.5729 23.5728Z" fill="#121929" fill-opacity="0.64"/>
<path fill-rule="evenodd" clip-rule="evenodd" d="M25.875 18C25.875 17.5858 26.2108 17.25 26.625 17.25H28.5C28.9142 17.25 29.25 17.5858 29.25 18C29.25 18.4142 28.9142 18.75 28.5 18.75H26.625C26.2108 18.75 25.875 18.4142 25.875 18Z" fill="#121929" fill-opacity="0.64"/>
<path fill-rule="evenodd" clip-rule="evenodd" d="M25.9555 10.0447C26.2484 10.3376 26.2484 10.8125 25.9555 11.1054L24.6336 12.4273C24.3407 12.7202 23.8658 12.7202 23.5729 12.4273C23.28 12.1344 23.28 11.6595 23.5729 11.3666L24.8948 10.0447C25.1877 9.75185 25.6626 9.75185 25.9555 10.0447Z" fill="#121929" fill-opacity="0.64"/>
</svg>
