<svg width="36" height="36" viewBox="0 0 36 36" fill="none" xmlns="http://www.w3.org/2000/svg">
<path d="M27 12H22.5V11.25C22.5 10.6533 22.2629 10.081 21.841 9.65901C21.419 9.23705 20.8467 9 20.25 9H15.75C15.1533 9 14.581 9.23705 14.159 9.65901C13.7371 10.081 13.5 10.6533 13.5 11.25V12H9C8.60218 12 8.22064 12.158 7.93934 12.4393C7.65804 12.7206 7.5 13.1022 7.5 13.5V24C7.5 24.3978 7.65804 24.7794 7.93934 25.0607C8.22064 25.342 8.60218 25.5 9 25.5H27C27.3978 25.5 27.7794 25.342 28.0607 25.0607C28.342 24.7794 28.5 24.3978 28.5 24V13.5C28.5 13.1022 28.342 12.7206 28.0607 12.4393C27.7794 12.158 27.3978 12 27 12ZM15 11.25C15 11.0511 15.079 10.8603 15.2197 10.7197C15.3603 10.579 15.5511 10.5 15.75 10.5H20.25C20.4489 10.5 20.6397 10.579 20.7803 10.7197C20.921 10.8603 21 11.0511 21 11.25V12H15V11.25ZM27 13.5V16.5H24V15.75C24 15.5511 23.921 15.3603 23.7803 15.2197C23.6397 15.079 23.4489 15 23.25 15C23.0511 15 22.8603 15.079 22.7197 15.2197C22.579 15.3603 22.5 15.5511 22.5 15.75V16.5H13.5V15.75C13.5 15.5511 13.421 15.3603 13.2803 15.2197C13.1397 15.079 12.9489 15 12.75 15C12.5511 15 12.3603 15.079 12.2197 15.2197C12.079 15.3603 12 15.5511 12 15.75V16.5H9V13.5H27ZM27 24H9V18H12V18.75C12 18.9489 12.079 19.1397 12.2197 19.2803C12.3603 19.421 12.5511 19.5 12.75 19.5C12.9489 19.5 13.1397 19.421 13.2803 19.2803C13.421 19.1397 13.5 18.9489 13.5 18.75V18H22.5V18.75C22.5 18.9489 22.579 19.1397 22.7197 19.2803C22.8603 19.421 23.0511 19.5 23.25 19.5C23.4489 19.5 23.6397 19.421 23.7803 19.2803C23.921 19.1397 24 18.9489 24 18.75V18H27V24Z" fill="#121929" fill-opacity="0.64"/>
</svg>
