<svg width="36" height="36" viewBox="0 0 36 36" fill="none" xmlns="http://www.w3.org/2000/svg">
<path d="M18 8.25C16.0716 8.25 14.1866 8.82183 12.5832 9.89317C10.9798 10.9645 9.73013 12.4873 8.99218 14.2688C8.25422 16.0504 8.06114 18.0108 8.43735 19.9021C8.81355 21.7934 9.74215 23.5307 11.1057 24.8943C12.4693 26.2579 14.2066 27.1865 16.0979 27.5627C17.9892 27.9389 19.9496 27.7458 21.7312 27.0078C23.5127 26.2699 25.0355 25.0202 26.1068 23.4168C27.1782 21.8134 27.75 19.9284 27.75 18C27.7473 15.415 26.7192 12.9366 24.8913 11.1087C23.0634 9.28084 20.585 8.25273 18 8.25ZM12.945 24.5156C13.4876 23.6671 14.235 22.9688 15.1184 22.4851C16.0019 22.0013 16.9928 21.7478 18 21.7478C19.0072 21.7478 19.9982 22.0013 20.8816 22.4851C21.765 22.9688 22.5124 23.6671 23.055 24.5156C21.6097 25.6397 19.831 26.2499 18 26.2499C16.169 26.2499 14.3903 25.6397 12.945 24.5156ZM15 17.25C15 16.6567 15.176 16.0766 15.5056 15.5833C15.8352 15.0899 16.3038 14.7054 16.852 14.4784C17.4001 14.2513 18.0033 14.1919 18.5853 14.3076C19.1672 14.4234 19.7018 14.7091 20.1213 15.1287C20.5409 15.5482 20.8266 16.0828 20.9424 16.6647C21.0581 17.2467 20.9987 17.8499 20.7716 18.3981C20.5446 18.9462 20.1601 19.4148 19.6667 19.7444C19.1734 20.0741 18.5933 20.25 18 20.25C17.2044 20.25 16.4413 19.9339 15.8787 19.3713C15.3161 18.8087 15 18.0456 15 17.25ZM24.165 23.4759C23.3285 22.2638 22.1524 21.3261 20.7844 20.7806C21.5192 20.2019 22.0554 19.4085 22.3184 18.5108C22.5815 17.6132 22.5582 16.6559 22.252 15.7721C21.9457 14.8882 21.3716 14.1218 20.6096 13.5794C19.8475 13.037 18.9354 12.7455 18 12.7455C17.0646 12.7455 16.1525 13.037 15.3904 13.5794C14.6284 14.1218 14.0543 14.8882 13.7481 15.7721C13.4418 16.6559 13.4185 17.6132 13.6816 18.5108C13.9446 19.4085 14.4808 20.2019 15.2156 20.7806C13.8476 21.3261 12.6715 22.2638 11.835 23.4759C10.778 22.2873 10.0872 20.8185 9.84567 19.2464C9.60415 17.6743 9.82224 16.0658 10.4737 14.6148C11.1251 13.1637 12.1821 11.9319 13.5174 11.0677C14.8528 10.2035 16.4094 9.74367 18 9.74367C19.5906 9.74367 21.1473 10.2035 22.4826 11.0677C23.8179 11.9319 24.8749 13.1637 25.5263 14.6148C26.1778 16.0658 26.3959 17.6743 26.1543 19.2464C25.9128 20.8185 25.222 22.2873 24.165 23.4759Z" fill="#121929" fill-opacity="0.64"/>
</svg>
