<svg width="36" height="36" viewBox="0 0 36 36" fill="none" xmlns="http://www.w3.org/2000/svg">
<rect width="36" height="36" rx="8" fill="#EAEDEE"/>
<path d="M26.25 12.75H11.25C11.0511 12.75 10.8603 12.671 10.7197 12.5303C10.579 12.3897 10.5 12.1989 10.5 12C10.5 11.8011 10.579 11.6103 10.7197 11.4697C10.8603 11.329 11.0511 11.25 11.25 11.25H24C24.1989 11.25 24.3897 11.171 24.5303 11.0303C24.671 10.8897 24.75 10.6989 24.75 10.5C24.75 10.3011 24.671 10.1103 24.5303 9.96967C24.3897 9.82902 24.1989 9.75 24 9.75H11.25C10.6533 9.75 10.081 9.98705 9.65901 10.409C9.23705 10.831 9 11.4033 9 12V24C9 24.5967 9.23705 25.169 9.65901 25.591C10.081 26.0129 10.6533 26.25 11.25 26.25H26.25C26.6478 26.25 27.0294 26.092 27.3107 25.8107C27.592 25.5294 27.75 25.1478 27.75 24.75V14.25C27.75 13.8522 27.592 13.4706 27.3107 13.1893C27.0294 12.908 26.6478 12.75 26.25 12.75ZM26.25 24.75H11.25C11.0511 24.75 10.8603 24.671 10.7197 24.5303C10.579 24.3897 10.5 24.1989 10.5 24V14.1216C10.7408 14.2069 10.9945 14.2504 11.25 14.25H26.25V24.75ZM21.75 19.125C21.75 18.9025 21.816 18.685 21.9396 18.5C22.0632 18.315 22.2389 18.1708 22.4445 18.0856C22.65 18.0005 22.8762 17.9782 23.0945 18.0216C23.3127 18.065 23.5132 18.1722 23.6705 18.3295C23.8278 18.4868 23.935 18.6873 23.9784 18.9055C24.0218 19.1238 23.9995 19.35 23.9144 19.5555C23.8292 19.7611 23.685 19.9368 23.5 20.0604C23.315 20.184 23.0975 20.25 22.875 20.25C22.5766 20.25 22.2905 20.1315 22.0795 19.9205C21.8685 19.7095 21.75 19.4234 21.75 19.125Z" fill="#00BDFF"/>
</svg>
